<?xml version="1.0" encoding="UTF-8"?>
<!-- Generator: Adobe Illustrator 17.0.0, SVG Export Plug-In . SVG Version: 6.00 Build 0)  -->
<!DOCTYPE svg PUBLIC "-//W3C//DTD SVG 1.1//EN" "http://www.w3.org/Graphics/SVG/1.1/DTD/svg11.dtd">
<svg version="1.1" id="Calque_1" xmlns="http://www.w3.org/2000/svg" xmlns:xlink="http://www.w3.org/1999/xlink" x="0px" y="0px" width="171.167px" height="91.5px" viewBox="0 -2.167 171.167 91.5" enable-background="new 0 -2.167 171.167 91.5" xml:space="preserve">
<g>
	<path fill="#FFF" d="M88.005,40.842v8.749c0,3.08,1.947,3.639,4.129,3.639c0.896,0,2.2-0.101,2.758-0.221   c0.236-0.05,0.338-0.135,0.338-0.355V51.08c0-0.186-0.152-0.338-0.338-0.338h-2.911c-0.795,0-1.083-0.271-1.083-1.152v-8.749   c0-0.185-0.153-0.338-0.339-0.338h-2.216C88.157,40.504,88.005,40.657,88.005,40.842 M18.214,37.376   c1.915,4.723,3.352,6.261,4.657,8.105l12.194,7.177c0.547-3.925,1.812-5.841,3.69-8.455c0,0-9.772-0.188-13.69-2.994   c-2.433-1.742-7.261-8.567-7.261-8.567L18.214,37.376z M20.032,49.841h-0.485c-0.086,0-0.118,0.064-0.065,0.129l0.743,1.021   c0.033,0.054,0.086,0.065,0.141,0.065h0.355c0.086,0,0.118-0.054,0.076-0.129l-0.635-1.01   C20.128,49.873,20.085,49.841,20.032,49.841 M30.274,54.231v-0.937c0-0.667,0.366-1.108,1.034-1.108   c0.646,0,1.033,0.441,1.033,1.066c0,0.57-0.387,0.979-1.033,0.979H30.274z M30.274,55.479v-0.658h1.034   c0.99,0,1.645-0.676,1.645-1.57c0-0.947-0.655-1.656-1.645-1.656c-1.012,0-1.645,0.709-1.645,1.699v2.185   c0,1.011,0.654,1.688,1.645,1.688c0.947,0,1.602-0.677,1.635-1.688c0-0.065-0.044-0.108-0.108-0.108h-0.398   c-0.064,0-0.108,0.032-0.108,0.108c-0.021,0.656-0.42,1.098-1.022,1.098C30.661,56.577,30.274,56.125,30.274,55.479 M30.048,62.619   c0-0.667,0.366-1.108,1.034-1.108c0.646,0,1.033,0.441,1.033,1.066c0,0.57-0.387,0.979-1.033,0.979h-1.034V62.619z M29.437,62.619   v2.185c0,1.011,0.654,1.688,1.645,1.688c0.947,0,1.602-0.677,1.635-1.688c0-0.065-0.044-0.108-0.108-0.108h-0.398   c-0.064,0-0.108,0.032-0.108,0.108c-0.021,0.656-0.42,1.098-1.022,1.098c-0.646,0-1.034-0.452-1.034-1.098v-0.658h1.034   c0.99,0,1.645-0.676,1.645-1.57c0-0.947-0.655-1.656-1.645-1.656C30.07,60.921,29.437,61.629,29.437,62.619 M25.195,62.598   c0-0.646,0.388-1.098,1.034-1.098c0.647,0,1.034,0.452,1.034,1.098v2.217c0,0.646-0.387,1.098-1.034,1.098   c-0.646,0-1.034-0.452-1.034-1.098V62.598z M24.583,62.598v2.217c0,0.969,0.655,1.688,1.645,1.688c0.991,0,1.645-0.719,1.645-1.688   v-5.842c0-0.064-0.043-0.108-0.107-0.108H27.37c-0.065,0-0.108,0.044-0.108,0.108v2.474c-0.258-0.322-0.614-0.536-1.034-0.536   C25.239,60.91,24.583,61.629,24.583,62.598 M23.045,56.962c0,0.065,0.044,0.108,0.108,0.108h0.398c0.064,0,0.108-0.043,0.108-0.108   v-3.69c0-0.646,0.334-1.098,0.926-1.098c0.591,0,0.926,0.452,0.926,1.098v3.69c0,0.065,0.043,0.108,0.107,0.108h0.398   c0.064,0,0.108-0.043,0.108-0.108v-3.69c0-0.646,0.334-1.098,0.926-1.098c0.591,0,0.926,0.452,0.926,1.098v3.69   c0,0.065,0.043,0.108,0.107,0.108h0.398c0.064,0,0.108-0.043,0.108-0.108v-3.69c0-0.969-0.601-1.688-1.538-1.688   c-0.561,0-1.002,0.333-1.227,0.806c-0.237-0.473-0.678-0.806-1.237-0.806c-0.937,0-1.539,0.719-1.539,1.688V56.962z M22.442,61.018   c-0.065,0-0.108,0.043-0.108,0.107v5.163c0,0.065,0.043,0.108,0.108,0.108h0.398c0.064,0,0.107-0.043,0.107-0.108v-5.163   c0-0.064-0.043-0.107-0.107-0.107H22.442z M22.216,59.897c0,0.237,0.172,0.419,0.419,0.419c0.237,0,0.419-0.193,0.419-0.419   c0-0.247-0.182-0.419-0.419-0.419C22.388,59.479,22.216,59.65,22.216,59.897 M19.418,54.231v-0.937   c0-0.667,0.366-1.108,1.034-1.108c0.646,0,1.034,0.441,1.034,1.066c0,0.57-0.388,0.979-1.034,0.979H19.418z M20.452,57.167   c0.947,0,1.602-0.677,1.635-1.688c0-0.065-0.044-0.108-0.108-0.108h-0.398c-0.064,0-0.108,0.032-0.108,0.108   c-0.021,0.656-0.42,1.098-1.022,1.098c-0.647,0-1.034-0.452-1.034-1.098v-0.658h1.034c0.99,0,1.645-0.676,1.645-1.57   c0-0.947-0.655-1.656-1.645-1.656c-1.012,0-1.647,0.709-1.647,1.699v2.185C18.805,56.49,19.46,57.167,20.452,57.167 M17.933,62.598   c0-0.646,0.387-1.098,1.033-1.098c0.647,0,1.034,0.452,1.034,1.098v2.217c0,0.646-0.387,1.098-1.034,1.098   c-0.646,0-1.033-0.452-1.033-1.098V62.598z M17.321,62.598v5.842c0,0.064,0.044,0.108,0.108,0.108h0.398   c0.064,0,0.108-0.044,0.108-0.108v-2.474c0.258,0.322,0.613,0.536,1.13,0.536c0.894,0,1.55-0.719,1.55-1.688v-2.217   c0-0.969-0.655-1.688-1.647-1.688C17.976,60.91,17.321,61.629,17.321,62.598 M16.138,53.316v3.647c0,0.065,0.043,0.108,0.107,0.108   h0.397c0.065,0,0.108-0.043,0.108-0.108v-3.647c0-0.667,0.441-1.066,1.076-1.066h0.473c0.064,0,0.108-0.043,0.108-0.107v-0.376   c0-0.064-0.044-0.108-0.108-0.108h-0.473C16.857,51.659,16.138,52.325,16.138,53.316 M13.027,64.825   c0-0.528,0.388-0.958,1.023-0.958h1.044v0.958c0,0.635-0.377,1.076-1.023,1.076C13.415,65.902,13.027,65.461,13.027,64.825    M12.415,64.825c0,0.958,0.654,1.667,1.656,1.667c0.99,0,1.635-0.709,1.635-1.667v-2.249c0-0.947-0.634-1.667-1.624-1.667   c-0.926,0-1.527,0.665-1.582,1.58c0,0.065,0.044,0.108,0.108,0.108h0.398c0.064,0,0.097-0.032,0.108-0.108   c0.043-0.593,0.398-0.99,0.969-0.99c0.635,0,1.012,0.452,1.012,1.076v0.7H14.05C13.069,63.277,12.415,63.975,12.415,64.825    M8.056,60.694c0-0.797,0.452-1.335,1.119-1.335c0.667,0,1.12,0.538,1.12,1.335v0.796c0,0.764-0.453,1.302-1.131,1.302H8.056   V60.694z M7.411,60.694v5.594c0,0.065,0.043,0.108,0.108,0.108h0.429c0.064,0,0.108-0.043,0.108-0.108v-2.893h1.195l1.163,2.916   c0.021,0.064,0.064,0.085,0.117,0.085h0.473c0.075,0,0.118-0.053,0.086-0.129l-1.236-3.001c0.623-0.258,1.085-0.881,1.085-1.775   v-0.796c0-1.131-0.719-1.936-1.764-1.936S7.411,59.563,7.411,60.694 M7.949,47.745c0.064,0,0.108-0.043,0.108-0.108v-7.315   c0-0.064-0.044-0.107-0.108-0.107H7.551c-0.064,0-0.108,0.043-0.108,0.107v7.315c0,0.065,0.044,0.108,0.108,0.108H7.949z    M10.133,51.756c0,0.753-0.399,1.195-1.076,1.195H8.056V51.24c0-0.753,0.376-1.195,1.011-1.195c0.679,0,1.066,0.441,1.066,1.195   V51.756z M8.056,53.552h1.151c0.7,0,1.109,0.452,1.109,1.205v0.528c0,0.753-0.409,1.205-1.109,1.205H8.056V53.552z M9.068,49.443   c-0.99,0-1.656,0.72-1.656,1.797v5.53c0,0.194,0.129,0.323,0.322,0.323h1.474c1.055,0,1.753-0.72,1.753-1.807v-0.528   c0-0.753-0.419-1.356-1.074-1.56c0.548-0.161,0.892-0.72,0.892-1.441V51.24C10.778,50.163,10.101,49.443,9.068,49.443    M11.834,43.927c0,0.57-0.388,0.979-1.034,0.979H9.767v-0.937c0-0.667,0.366-1.108,1.034-1.108   C11.446,42.861,11.834,43.302,11.834,43.927 M12.446,43.927c0-0.947-0.655-1.656-1.645-1.656c-1.012,0-1.645,0.709-1.645,1.699   v2.185c0,1.011,0.654,1.688,1.645,1.688c0.947,0,1.602-0.677,1.635-1.688c0-0.065-0.044-0.108-0.108-0.108H11.93   c-0.064,0-0.108,0.032-0.108,0.108c-0.021,0.656-0.42,1.098-1.022,1.098c-0.647,0-1.034-0.452-1.034-1.098v-0.658H10.8   C11.791,45.496,12.446,44.821,12.446,43.927 M14.448,55.5c0,0.635-0.377,1.076-1.023,1.076c-0.656,0-1.044-0.441-1.044-1.076   c0-0.528,0.388-0.958,1.023-0.958h1.044V55.5z M13.436,51.585c-0.926,0-1.527,0.665-1.582,1.58c0,0.065,0.044,0.108,0.108,0.108   h0.398c0.064,0,0.097-0.032,0.108-0.108c0.043-0.593,0.399-0.99,0.969-0.99c0.635,0,1.012,0.452,1.012,1.076v0.7h-1.044   c-0.98,0-1.635,0.698-1.635,1.548c0,0.958,0.654,1.667,1.656,1.667c0.99,0,1.635-0.709,1.635-1.667v-2.249   C15.06,52.304,14.427,51.585,13.436,51.585 M14.126,34.92c0.898,1.867,3.088,2.13,3.088,2.13l-0.952-8.758   C16.262,28.292,12.487,31.512,14.126,34.92 M17.535,29.239c0,0,2.122-5.114,2.122-6.063c0-1.566-2.501-5.217-2.501-5.217   c-0.117,0.761-1.697,3.191-2.046,4.61C14.761,23.99,17.535,29.239,17.535,29.239 M25.9,30.105l-0.731,2.2h-2.381l1.932,1.343   l-0.723,2.171l1.902-1.345l1.897,1.345l-0.721-2.171l1.931-1.343l-2.381,0.003L25.9,30.105z M29.686,24.201l1.932-1.341   l-2.379,0.001l-0.73-2.2l-0.729,2.199h-2.379l1.931,1.341l-0.725,2.171l1.901-1.343l1.902,1.343L29.686,24.201z M37.27,17.237   l1.928-1.344l-2.38,0.004l-0.728-2.201l-0.726,2.196h-2.383l1.931,1.344l-0.724,2.172l1.9-1.346l1.903,1.346L37.27,17.237z    M46.788,14.588l1.93-1.342l-2.379,0.003l-0.729-2.2l-0.729,2.196H42.5l1.932,1.342l-0.724,2.172l1.901-1.343l1.901,1.343   L46.788,14.588z M49.308,29.009l1.572-5.773l-4.044,4.203l-1.428-4.925l-1.427,5.052l-4.166-4.33l1.573,5.773   c0,0-6.289-1.799-6.114-1.71l4.017,3.875l-5.939,0.603l5.644,2.551l-3.264,3.441c-0.116,0.059,2.634-0.4,4.486-0.712   c-0.012,0.192-0.021,0.386-0.021,0.582c0,3.924,2.342,7.104,5.233,7.104c2.889,0,5.232-3.18,5.232-7.104   c0-0.188-0.01-0.371-0.02-0.555c1.846,0.311,4.438,0.743,4.325,0.685L51.7,34.328l5.644-2.551l-5.94-0.603l4.018-3.875   C55.597,27.21,49.308,29.009,49.308,29.009 M56.57,17.187l1.931-1.343l-2.38,0.003l-0.728-2.202l-0.729,2.199h-2.38l1.93,1.343   l-0.724,2.171l1.9-1.343l1.901,1.343L56.57,17.187z M63.354,24.355l1.929-1.342l-2.379,0.002l-0.729-2.202l-0.729,2.2h-2.379   l1.931,1.342l-0.725,2.172l1.901-1.342l1.902,1.342L63.354,24.355z M67.133,36.097l-0.725-2.171l1.933-1.342l-2.381,0.004   l-0.729-2.204l-0.728,2.2h-2.381l1.932,1.342l-0.724,2.171l1.9-1.343L67.133,36.097z M65.812,45.242l-0.724-2.171l1.929-1.342   l-2.379,0.001l-0.729-2.201l-0.729,2.2h-2.379l1.931,1.342l-0.725,2.171l1.901-1.345L65.812,45.242z M60.969,49.144l-1.929,1.342   l0.724,2.171l-1.902-1.345l-1.901,1.345l0.724-2.171l-1.93-1.342h2.379l0.729-2.2l0.728,2.201L60.969,49.144z M59.793,65.221   c8.81-1.14,4.378-23.814-7.588-21.759c-4.754,0.816-8.346,8.241-11.749,8.13c-3.556-0.116-0.341-7.722-0.341-7.722   s-3.259,3.582-3.966,7.506c-1.146,6.358,1.226,8.472,4.477,9.208c5.243,1.187,8.558-5.13,13.865-5.709   C60.683,54.2,59.793,65.221,59.793,65.221 M58.925,65.221c0,0,0.256-3.486-0.701-6.354c0,0-9.461,4.28-11.041,3.454   c-5.487-2.866-7.068,2.9-7.068,2.9h6.117H58.925z M38.872,72.614c1.31,0.04,20.066,0.012,20.066,0.012   c-1.146-0.335-1.121-5.853-0.18-6.266H38.904C36.838,66.439,37.213,72.564,38.872,72.614 M77.871,65.968l-38.086,21.99   L1.697,65.968V21.989l38.088-21.99l38.086,21.99V65.968z M39.785,88.574l38.619-22.298V21.681L39.785-0.616L1.297,21.604   l-0.133,0.077v44.595L39.785,88.574z M94.759,20.128c0.05-0.051,0.067-0.101,0.067-0.135c0-0.068-0.067-0.119-0.184-0.119h-2.196   c-0.234,0-0.301,0.068-0.452,0.254l-1.559,1.98c-0.05,0.067-0.067,0.118-0.067,0.169c0,0.067,0.05,0.118,0.151,0.118h1.794   c0.218,0,0.268-0.068,0.402-0.203L94.759,20.128z M95.614,35.425v-1.574c0-0.186-0.151-0.339-0.335-0.339h-3.403   c-0.787,0-1.073-0.27-1.073-1.151v-1.793h4.342c0.184,0,0.335-0.153,0.335-0.339v-1.608c0-0.186-0.151-0.338-0.335-0.338h-4.342   v-1.541c0-0.88,0.286-1.151,1.073-1.151h3.403c0.184,0,0.335-0.152,0.335-0.338v-1.574c0-0.22-0.1-0.304-0.335-0.338   c-0.587-0.085-1.425-0.221-3.235-0.221c-2.162,0-4.09,0.542-4.09,3.621v5.618c0,3.08,1.911,3.639,4.073,3.639   c1.81,0,2.665-0.136,3.252-0.221C95.514,35.746,95.614,35.645,95.614,35.425 M100.002,47.678l1.032-4.67   c0.034-0.169,0.085-0.253,0.237-0.253c0.152,0,0.186,0.084,0.22,0.253l1.032,4.67H100.002z M98.462,42.23l-2.521,10.491   c0,0.034-0.017,0.068-0.017,0.085c0,0.169,0.118,0.271,0.287,0.271h2.369c0.169,0,0.305-0.135,0.339-0.304l0.609-2.775h3.469   l0.609,2.775c0.034,0.169,0.169,0.304,0.339,0.304h2.369c0.168,0,0.288-0.101,0.288-0.271c0-0.017-0.018-0.05-0.018-0.085   l-2.521-10.491c-0.389-1.624-1.624-1.879-2.792-1.879C100.103,40.351,98.851,40.605,98.462,42.23 M105.437,30.653   c0,2.284-0.972,2.893-2.48,2.893c-0.42,0-0.956-0.017-1.191-0.034v-7.901c0.235-0.018,0.771-0.034,1.191-0.034   c1.508,0,2.48,0.61,2.48,2.894V30.653z M108.302,30.653V28.47c0-3.571-2.011-5.348-5.346-5.348c-1.392,0-2.883,0.136-3.571,0.254   c-0.318,0.051-0.486,0.203-0.486,0.592v11.186c0,0.389,0.167,0.541,0.486,0.592c0.688,0.118,2.179,0.254,3.571,0.254   C106.292,36,108.302,34.223,108.302,30.653 M114.37,35.509V23.596c0-0.186-0.134-0.321-0.318-0.321h-2.247   c-0.184,0-0.301,0.135-0.301,0.321v11.913c0,0.186,0.117,0.339,0.301,0.339h2.247C114.236,35.848,114.37,35.695,114.37,35.509    M117.736,40.504h-1.998c-0.186,0-0.338,0.135-0.338,0.321v7.158c0,0.119-0.051,0.153-0.085,0.153   c-0.051,0-0.068-0.033-0.135-0.135l-4.011-6.971c-0.203-0.356-0.371-0.525-0.71-0.525h-1.709c-0.356,0-0.643,0.288-0.643,0.643   v11.591c0,0.186,0.153,0.339,0.339,0.339h1.997c0.186,0,0.338-0.153,0.338-0.339v-6.853c0-0.101,0.034-0.135,0.085-0.135   c0.051,0,0.085,0.033,0.153,0.135l3.858,6.667c0.271,0.457,0.525,0.525,0.881,0.525h1.658c0.356,0,0.66-0.288,0.66-0.643V40.825   C118.074,40.639,117.922,40.504,117.736,40.504 M126.137,25.34v-1.744c0-0.186-0.168-0.321-0.353-0.321h-8.313   c-0.185,0-0.336,0.135-0.336,0.321v1.744c0,0.186,0.151,0.321,0.336,0.321h2.732v9.848c0,0.186,0.151,0.339,0.335,0.339h2.196   c0.185,0,0.336-0.153,0.336-0.339v-9.848h2.715C125.969,25.661,126.137,25.526,126.137,25.34 M128.785,40.74   c-0.626-0.135-1.844-0.389-3.536-0.389c-2.454,0-5.144,1.084-5.144,5.398v2.098c0,4.281,2.893,5.382,4.823,5.382   c1.692,0,2.876-0.169,3.791-0.356c0.253-0.051,0.338-0.153,0.338-0.389v-5.686c0-0.186-0.152-0.339-0.338-0.339h-2.166   c-0.186,0-0.321,0.153-0.321,0.339v3.892c-0.407,0.033-0.829,0.051-1.303,0.051c-0.829,0-1.895-0.542-1.895-2.877V45.75   c0-2.216,0.846-2.876,2.216-2.876c1.438,0,2.708,0.101,3.52,0.135h0.051c0.152,0,0.253-0.033,0.253-0.22v-1.794   C129.073,40.842,128.955,40.775,128.785,40.74 M131.769,35.509V23.596c0-0.186-0.135-0.321-0.319-0.321h-2.246   c-0.184,0-0.301,0.135-0.301,0.321v11.913c0,0.186,0.117,0.339,0.301,0.339h2.246C131.634,35.848,131.769,35.695,131.769,35.509    M135.334,50.742c-0.795,0-1.084-0.271-1.084-1.152v-8.749c0-0.185-0.152-0.338-0.338-0.338h-2.216   c-0.186,0-0.339,0.153-0.339,0.338v8.749c0,3.08,1.947,3.639,4.128,3.639c0.897,0,2.201-0.101,2.759-0.221   c0.236-0.05,0.338-0.135,0.338-0.355V51.08c0-0.186-0.153-0.338-0.338-0.338H135.334z M142.043,30.568   c0,2.03-0.671,2.893-2.079,2.893c-1.408,0-2.062-0.863-2.062-2.893v-2.014c0-2.03,0.654-2.893,2.062-2.893   c1.408,0,2.079,0.863,2.079,2.893V30.568z M144.927,30.568v-2.014c0-3.926-2.196-5.432-4.962-5.432   c-2.766,0-4.962,1.506-4.962,5.432v2.014c0,3.926,2.196,5.432,4.962,5.432C142.731,36,144.927,34.494,144.927,30.568    M146.452,47.798c0,2.03-0.678,2.893-2.098,2.893c-1.421,0-2.081-0.863-2.081-2.893v-2.015c0-2.03,0.66-2.893,2.081-2.893   c1.421,0,2.098,0.863,2.098,2.893V47.798z M149.362,45.783c0-3.926-2.216-5.432-5.008-5.432c-2.793,0-5.009,1.506-5.009,5.432   v2.015c0,3.926,2.216,5.432,5.009,5.432c2.792,0,5.008-1.506,5.008-5.432V45.783z M158.034,35.204V23.596   c0-0.186-0.152-0.321-0.336-0.321h-1.978c-0.184,0-0.335,0.135-0.335,0.321v7.159c0,0.118-0.05,0.152-0.084,0.152   c-0.05,0-0.067-0.033-0.134-0.135l-3.973-6.971c-0.201-0.356-0.368-0.525-0.703-0.525h-1.693c-0.352,0-0.636,0.288-0.636,0.643   v11.591c0,0.186,0.151,0.339,0.335,0.339h1.978c0.184,0,0.335-0.153,0.335-0.339v-6.852c0-0.102,0.033-0.136,0.084-0.136   c0.05,0,0.084,0.033,0.151,0.136l3.822,6.666c0.268,0.457,0.519,0.525,0.871,0.525h1.643   C157.732,35.848,158.034,35.56,158.034,35.204 M152.34,37.323c-0.186,0-0.371,0.152-0.371,0.338v1.574   c0,0.186,0.185,0.338,0.371,0.338h1.591c0.186,0,0.356-0.152,0.356-0.338v-1.574c0-0.186-0.169-0.338-0.356-0.338H152.34z    M155.64,37.661v1.574c0,0.186,0.169,0.338,0.356,0.338h1.591c0.186,0,0.371-0.152,0.371-0.338v-1.574   c0-0.186-0.185-0.338-0.371-0.338h-1.591C155.809,37.323,155.64,37.475,155.64,37.661 M160.073,40.876   c0.017-0.034,0.017-0.085,0.017-0.118c0-0.136-0.101-0.254-0.271-0.254h-2.437c-0.168,0-0.288,0.135-0.338,0.288l-1.827,4.772   c-0.085,0.22-0.136,0.254-0.254,0.254s-0.169-0.034-0.254-0.254l-1.827-4.772c-0.05-0.153-0.169-0.288-0.338-0.288h-2.437   c-0.169,0-0.271,0.118-0.271,0.254c0,0.033,0,0.084,0.017,0.118l2.555,5.854c0.339,0.779,0.711,1.134,1.117,1.303v4.704   c0,0.186,0.153,0.339,0.338,0.339h2.217c0.186,0,0.338-0.153,0.338-0.339v-4.704c0.407-0.169,0.761-0.524,1.1-1.303L160.073,40.876   z M166.453,49.557c0,0.813-0.339,1.185-1.506,1.185c-0.66,0-2.522-0.136-3.215-0.204h-0.05c-0.169,0-0.305,0.085-0.305,0.322v1.658   c0,0.186,0.169,0.288,0.339,0.339c0.863,0.22,1.861,0.372,3.199,0.372c3.435,0,4.619-1.912,4.619-3.706   c0-1.371-0.524-2.487-2.284-3.435l-2.166-1.168c-0.913-0.491-1.134-0.71-1.134-1.184c0-0.61,0.356-0.897,1.32-0.897   c1.151,0,3.114,0.153,3.588,0.186h0.033c0.221,0,0.288-0.135,0.288-0.288v-1.708c0-0.187-0.118-0.271-0.253-0.305   c-0.643-0.169-2.352-0.372-3.588-0.372c-3.283,0-4.332,1.438-4.332,3.3c0,1.235,0.424,2.301,1.997,3.232l2.336,1.388   C166.215,48.795,166.453,49.066,166.453,49.557 M164.001,26.507c0-0.609,0.352-0.896,1.307-0.896c1.14,0,3.084,0.152,3.553,0.186   h0.033c0.219,0,0.286-0.136,0.286-0.289V23.8c0-0.186-0.117-0.271-0.251-0.305c-0.637-0.168-2.331-0.372-3.554-0.372   c-3.252,0-4.291,1.439-4.291,3.3c0,1.235,0.42,2.301,1.978,3.232l2.313,1.388c0.872,0.524,1.106,0.795,1.106,1.286   c0,0.813-0.335,1.184-1.491,1.184c-0.654,0-2.497-0.135-3.185-0.203h-0.05c-0.167,0-0.301,0.085-0.301,0.322v1.658   c0,0.186,0.167,0.288,0.335,0.339c0.855,0.22,1.844,0.372,3.168,0.372c3.402,0,4.576-1.913,4.576-3.706   c0-1.371-0.519-2.487-2.263-3.435l-2.146-1.168C164.219,27.2,164.001,26.981,164.001,26.507"/>
	<g>
		<g>
			<path fill="#FFF" d="M89.733,64.72c-0.567,0-1.142-0.037-1.358-0.075c-0.096-0.015-0.157-0.074-0.157-0.186v-5.128     c0-0.104,0.06-0.172,0.157-0.186c0.216-0.037,0.791-0.075,1.358-0.075c1.381,0,2.262,0.709,2.262,2.322v1.007     C91.994,63.996,91.114,64.72,89.733,64.72z M91.316,61.391c0-1.352-0.687-1.739-1.583-1.739c-0.351,0-0.582,0.007-0.828,0.022     v4.448c0.239,0.016,0.478,0.016,0.828,0.016c0.896,0,1.583-0.395,1.583-1.739V61.391z"/>
			<path fill="#FFF" d="M96.693,62.825h-2.5v0.104c0,0.888,0.351,1.217,1.038,1.217c0.433,0,0.985-0.03,1.328-0.082     c0.016,0,0.023,0,0.037,0c0.059,0,0.12,0.03,0.12,0.104v0.254c0,0.098-0.03,0.15-0.15,0.172     c-0.425,0.082-0.836,0.127-1.335,0.127c-0.859,0-1.694-0.403-1.694-1.791v-0.672c0-1.067,0.589-1.746,1.657-1.746     c1.09,0,1.642,0.687,1.642,1.746v0.404C96.836,62.757,96.783,62.825,96.693,62.825z M96.171,62.256     c0-0.843-0.321-1.172-0.977-1.172c-0.642,0-1,0.366-1,1.172v0.068h1.977V62.256z"/>
			<path fill="#FFF" d="M100.006,64.72c-0.231,0-0.582-0.029-0.873-0.082v1.351c0,0.075-0.06,0.143-0.142,0.143H98.61     c-0.075,0-0.134-0.06-0.134-0.143v-5.135c0-0.097,0.022-0.142,0.156-0.172c0.395-0.097,0.918-0.172,1.374-0.172     c1.113,0,1.627,0.724,1.627,1.844v0.537C101.632,64.063,101.095,64.72,100.006,64.72z M100.976,62.354     c0-0.784-0.231-1.292-0.97-1.292c-0.313,0-0.664,0.037-0.873,0.075v2.956c0.246,0.045,0.634,0.074,0.873,0.074     c0.732,0,0.97-0.478,0.97-1.276V62.354z"/>
			<path fill="#FFF" d="M106.258,64.668h-0.374c-0.082,0-0.142-0.068-0.142-0.149v-0.143c-0.411,0.232-0.746,0.343-1.186,0.343     c-0.896,0-1.299-0.56-1.299-1.553v-2.455c0-0.082,0.067-0.15,0.149-0.15h0.358c0.082,0,0.15,0.068,0.15,0.15v2.455     c0,0.755,0.254,0.986,0.821,0.986c0.313,0,0.664-0.12,1.007-0.291v-3.149c0-0.075,0.067-0.15,0.149-0.15h0.366     c0.075,0,0.142,0.068,0.142,0.15v3.807C106.399,64.6,106.34,64.668,106.258,64.668z"/>
			<path fill="#FFF" d="M108.763,59.905h-0.381c-0.082,0-0.15-0.067-0.15-0.149v-0.597c0-0.082,0.068-0.149,0.15-0.149h0.381     c0.082,0,0.149,0.067,0.149,0.149v0.597C108.911,59.839,108.845,59.905,108.763,59.905z M108.747,64.668h-0.358     c-0.082,0-0.149-0.068-0.149-0.149v-3.807c0-0.082,0.067-0.15,0.149-0.15h0.358c0.082,0,0.15,0.068,0.15,0.15v3.807     C108.897,64.6,108.829,64.668,108.747,64.668z"/>
			<path fill="#FFF" d="M111.948,64.72c-0.276,0-0.813-0.022-1.179-0.111c-0.097-0.023-0.156-0.068-0.156-0.15v-0.261     c0-0.067,0.059-0.111,0.134-0.111c0.015,0,0.022,0,0.029,0c0.359,0.045,0.903,0.081,1.172,0.081c0.486,0,0.739-0.126,0.739-0.53     c0-0.224-0.134-0.365-0.56-0.619l-0.753-0.448c-0.455-0.277-0.761-0.597-0.761-1.068c0-0.776,0.582-0.993,1.351-0.993     c0.417,0,0.813,0.037,1.165,0.098c0.097,0.015,0.142,0.067,0.142,0.149v0.247c0,0.09-0.052,0.127-0.127,0.127     c-0.007,0-0.015,0-0.023,0c-0.261-0.023-0.739-0.06-1.156-0.06c-0.418,0-0.694,0.052-0.694,0.433     c0,0.224,0.172,0.366,0.515,0.567l0.739,0.44c0.619,0.366,0.821,0.687,0.821,1.127C113.345,64.399,112.785,64.72,111.948,64.72z"/>
			<path fill="#FFF" d="M117.721,64.668c-0.081,0-0.149-0.052-0.149-0.134v-0.329c0-0.082,0.068-0.127,0.149-0.127h1.187v-4.255     l-1.172,0.493c-0.06,0.022-0.164,0.045-0.164-0.06v-0.38c0-0.053,0.023-0.068,0.075-0.098l1.336-0.612     c0.059-0.029,0.111-0.045,0.156-0.045h0.306c0.075,0,0.142,0.06,0.142,0.143v4.813h1.195c0.082,0,0.149,0.045,0.149,0.127v0.329     c0,0.082-0.067,0.134-0.149,0.134H117.721z"/>
			<path fill="#FFF" d="M124.369,64.72c-0.589,0-0.977-0.059-1.283-0.127c-0.097-0.022-0.179-0.052-0.179-0.142V64.16     c0-0.09,0.059-0.134,0.134-0.134c0.015,0,0.03,0.007,0.045,0.007c0.381,0.075,0.806,0.12,1.276,0.12     c1.157,0,1.284-0.679,1.284-1.657v-0.082c-0.313,0.068-0.672,0.15-1.127,0.15c-0.978,0-1.836-0.359-1.836-1.56v-0.045     c0-1.18,0.605-1.889,1.821-1.889c1.119,0,1.813,0.657,1.813,2.12v1.306C126.317,64.093,125.646,64.72,124.369,64.72z      M125.646,61.19c0-1.217-0.411-1.567-1.134-1.567c-0.701,0-1.157,0.328-1.157,1.336v0.045c0,0.806,0.567,1.029,1.157,1.029     c0.365,0,0.858-0.067,1.127-0.134L125.646,61.19z"/>
			<path fill="#FFF" d="M129.607,64.72c-0.485,0-0.941-0.045-1.313-0.134c-0.082-0.022-0.143-0.052-0.143-0.149V64.16     c0-0.074,0.045-0.111,0.112-0.111c0.015,0,0.023,0,0.037,0c0.47,0.082,0.932,0.104,1.306,0.104c0.843,0,1.217-0.41,1.217-1.172     v-0.111c0-0.747-0.463-1-1.56-1h-0.896c-0.067,0-0.119-0.06-0.119-0.127v-0.008l0.208-2.485c0.008-0.075,0.075-0.127,0.15-0.127     h2.568c0.082,0,0.149,0.045,0.149,0.127v0.329c0,0.082-0.067,0.12-0.149,0.12h-2.142l-0.12,1.612h0.351     c1.388,0,2.247,0.365,2.247,1.56v0.111C131.51,64.086,130.816,64.72,129.607,64.72z"/>
			<path fill="#FFF" d="M135.082,64.72c-1.113,0-1.807-0.657-1.807-2.12v-1.306c0-1.596,0.672-2.224,1.948-2.224     c0.59,0,0.978,0.059,1.284,0.127c0.09,0.023,0.172,0.052,0.172,0.142v0.291c0,0.09-0.06,0.134-0.134,0.134     c-0.016,0-0.03-0.007-0.045-0.007c-0.381-0.075-0.799-0.12-1.277-0.12c-1.149,0-1.276,0.68-1.276,1.657v0.082     c0.306-0.067,0.664-0.149,1.127-0.149c0.97,0,1.829,0.358,1.829,1.56v0.045C136.903,64.011,136.306,64.72,135.082,64.72z      M136.231,62.787c0-0.807-0.567-1.03-1.156-1.03c-0.366,0-0.859,0.068-1.127,0.134V62.6c0,1.217,0.41,1.567,1.134,1.567     c0.694,0,1.149-0.328,1.149-1.335V62.787z"/>
		</g>
	</g>
</g>
</svg>